<svg xmlns="http://www.w3.org/2000/svg" xmlns:xlink="http://www.w3.org/1999/xlink" version="1.1" x="0px" y="0px" viewBox="-278 373.3 37.2 110.6" style="enable-background:new -278 373.3 37.2 110.6;" xml:space="preserve"><circle cx="-259.9" cy="390.5" r="10.5"></circle><path d="M-269.5,458.2c0,2.5,2.1,4.6,4.6,4.6c2.5,0,4.6-2.1,4.6-4.6l0-16h2l0,16c0,2.5,2,4.6,4.6,4.6s4.6-2.1,4.6-4.6l0-43.8h2v24.4  c0,4.9,6.4,4.9,6.4,0v-24.9c0-5.4-3.2-10.7-9.5-10.7l-18.3,0c-5.8,0-9.4,4.7-9.4,10.6v25.1c0,4.9,6.4,4.9,6.4,0v-24.4h2  L-269.5,458.2z"></path></svg>
